<svg xmlns="http://www.w3.org/2000/svg" viewBox="0 0 400 100"><title>logo-color</title><path d="M90.05945,68.9924V31.01614h15.5791a12.549,12.549,0,0,1,8.76845,3.03551,10.219,10.219,0,0,1,3.34064,7.91828,10.22727,10.22727,0,0,1-2.14516,6.4843A10.89941,10.89941,0,0,1,109.8193,52.226l8.08992,16.76638h-4.6137l-7.70876-16.22384H94.24V68.9924ZM105.309,34.704H94.2336V49.30034H105.309a8.68439,8.68439,0,0,0,5.99635-2.00859,6.72367,6.72367,0,0,0,2.25515-5.26382,6.8111,6.8111,0,0,0-2.25515-5.31535A8.68407,8.68407,0,0,0,105.309,34.704Z" style="fill:#0d72ff"/><polygon points="127.885 68.993 127.885 31.016 153.829 31.016 153.829 34.653 132.066 34.653 132.066 47.996 147.154 47.996 147.154 51.632 132.066 51.632 132.066 65.357 154.049 65.357 154.049 68.993 127.885 68.993" style="fill:#0d72ff"/><path d="M160.88435,63.07444l2.55232-3.03547a24.60979,24.60979,0,0,0,6.42931,4.5597,16.1533,16.1533,0,0,0,6.70087,1.35626,11.63422,11.63422,0,0,0,7.2758-2.19576,6.62332,6.62332,0,0,0,2.87548-5.451,5.219,5.219,0,0,0-1.92558-4.34013q-1.92879-1.52113-6.53929-2.33155L172.12113,50.603q-5.21463-.92029-7.62478-3.17105a7.87915,7.87915,0,0,1-2.41653-6.05174,9.7292,9.7292,0,0,1,3.6378-7.81481,14.12767,14.12767,0,0,1,9.38879-3.03553,25.50645,25.50645,0,0,1,7.87034,1.169,26.44468,26.44468,0,0,1,7.166,3.662L187.9716,38.616a24.34993,24.34993,0,0,0-6.21612-3.36492,19.22747,19.22747,0,0,0-6.59728-1.19483,10.28371,10.28371,0,0,0-6.51349,1.98277,6.00176,6.00176,0,0,0-2.55232,4.90844,4.83383,4.83383,0,0,0,1.68,3.90758A11.37377,11.37377,0,0,0,173.252,46.8636l6.08033,1.03329q6.02875,1.085,8.79445,3.52642a8.42558,8.42558,0,0,1,2.76569,6.67167,9.86086,9.86086,0,0,1-1.08568,4.5597,10.98571,10.98571,0,0,1-3.01107,3.63621,14.77457,14.77457,0,0,1-4.58789,2.38954,18.3419,18.3419,0,0,1-5.75078.86551,21.26768,21.26768,0,0,1-8.2775-1.60163,24.621,24.621,0,0,1-7.30182-4.85687Z" style="fill:#0d72ff"/><polygon points="200.727 68.991 200.727 31.015 226.67 31.015 226.67 34.651 204.908 34.651 204.908 47.994 219.995 47.994 219.995 51.63 204.908 51.63 204.908 65.355 226.89 65.355 226.89 68.991 200.727 68.991" style="fill:#0d72ff"/><path d="M233.45545,68.9924l15.03638-37.97626h4.99546L268.30367,68.9924h-4.50351l-4.50351-11.93531H242.36049L237.857,68.9924h-4.40153Zm10.2029-15.24215h14.38444L250.82557,34.7621Z" style="fill:#0d72ff"/><path d="M276.33081,68.99259V31.01638h15.5783a12.54909,12.54909,0,0,1,8.769,3.03551,10.22146,10.22146,0,0,1,3.33963,7.91824,10.22729,10.22729,0,0,1-2.14374,6.4843,10.88044,10.88044,0,0,1-5.78337,3.77179l8.08911,16.76637h-4.61351l-7.70915-16.22383H280.51035V68.99259Zm15.24834-34.28837H280.50434V49.30054h11.07481a8.68566,8.68566,0,0,0,5.99734-2.00859,6.72852,6.72852,0,0,0,2.25577-5.26382,6.81081,6.81081,0,0,0-2.25577-5.31531A8.68543,8.68543,0,0,0,291.57915,34.70422Z" style="fill:#0d72ff"/><path d="M331.80476,65.78394a15.263,15.263,0,0,0,6.29332-1.35625,13.85324,13.85324,0,0,0,5.10544-3.84938l2.71372,2.7643a19.43038,19.43038,0,0,1-6.4613,4.6115,19.29646,19.29646,0,0,1-21.51765-4.09476,19.76487,19.76487,0,0,1-5.56342-13.86009,19.92833,19.92833,0,0,1,1.49184-7.67917,18.97639,18.97639,0,0,1,10.2289-10.39185,18.9936,18.9936,0,0,1,7.59918-1.51775,19.906,19.906,0,0,1,7.92312,1.62756,18.15882,18.15882,0,0,1,6.40332,4.6114l-2.76572,2.87415a14.74662,14.74662,0,0,0-5.20741-3.90752,15.12181,15.12181,0,0,0-6.35331-1.408A14.69227,14.69227,0,0,0,320.95,38.76788a15.63859,15.63859,0,0,0-3.17366,5.01826,17.111,17.111,0,0,0,0,12.42624A15.63859,15.63859,0,0,0,320.95,61.23064a14.63062,14.63062,0,0,0,4.80148,3.339,14.95185,14.95185,0,0,0,6.05333,1.22067Z" style="fill:#0d72ff"/><polygon points="356.228 68.993 356.228 31.016 360.408 31.016 360.408 47.996 382.229 47.996 382.229 31.016 386.411 31.016 386.411 68.993 382.229 68.993 382.229 51.742 360.408 51.742 360.408 68.993 356.228 68.993" style="fill:#0d72ff"/><path d="M43.6037,20A30,30,0,1,0,73.61824,50.00006,30.002,30.002,0,0,0,43.6037,20Zm0,49.27236a19.27881,19.27881,0,1,1,10.1191-35.69l-2.7593,4.5339a13.97261,13.97261,0,1,0,5.835,16.49513L38.52485,49.89667H62.8854v.09679a19.28406,19.28406,0,0,1-19.2881,19.2789Z" style="fill:#0d72ff"/></svg>